<svg height="512pt" viewBox="0 -55 512.00038 512" width="512pt" xmlns="http://www.w3.org/2000/svg"><path d="m358.59375 100.933594h-32.054688l17.886719-76.214844h32.347657zm0 0" fill="#a0a0a5"/><path d="m384.34375 38.105469h-53.824219c-11 0-17.945312-8.527344-15.515625-19.050781 2.433594-10.523438 13.359375-19.054688 24.410156-19.054688h54.070313c11.046875 0 17.941406 8.53125 15.390625 19.054688-2.546875 10.523437-13.53125 19.050781-24.53125 19.050781zm0 0" fill="#b9b9be"/><path d="m505.511719 271.796875-1.390625 5.5625-15.5 62.050781h-404.632813l14.777344-67.613281c13.964844-65.988281 59.765625-124.464844 118.894531-160.679687 39.394532-24.140626 84.710938-38.382813 130.460938-38.382813h2.234375c114.433593 0 183.902343 89.117187 155.15625 199.0625zm0 0" fill="#d2d2d7"/><path d="m505.511719 271.796875-1.390625 5.5625h-280.085938c-31.421875 0-55.738281-25.667969-55.738281-55.617187 0-3.945313.421875-7.960938 1.308594-12.007813 7.597656-35.882813 24.601562-69.550781 48.054687-98.617187 39.394532-24.140626 84.710938-38.382813 130.460938-38.382813h2.234375c114.433593 0 183.902343 89.117187 155.15625 199.0625zm0 0" fill="#ebebf0"/><path d="m96.359375 314.230469h391.480469c13.835937 0 22.125 11.09375 18.515625 24.78125l-.210938.800781c-3.609375 13.683594-17.679687 24.777344-31.429687 24.777344h-389.058594c-13.75 0-22.570312-11.09375-19.707031-24.777344l.167969-.800781c2.867187-13.6875 16.40625-24.78125 30.242187-24.78125zm0 0" fill="#a0a0a5"/><path d="m224.164062 358.214844c-5.574218 24.292968-29.789062 43.988281-54.078124 43.988281-24.292969 0-39.679688-19.695313-34.371094-43.988281 5.308594-24.289063 29.519531-43.984375 54.078125-43.984375 24.554687 0 39.945312 19.695312 34.371093 43.984375zm0 0" fill="#4b5055"/><path d="m176.777344 372.332031c-7.8125 0-12.761719-6.332031-11.03125-14.117187 1.730468-7.78125 9.515625-14.117188 17.355468-14.117188 7.839844 0 12.789063 6.335938 11.03125 14.117188-1.757812 7.785156-9.542968 14.117187-17.355468 14.117187zm0 0" fill="#5a5f64"/><path d="m427.671875 358.214844c-6.183594 24.292968-30.890625 43.988281-55.183594 43.988281s-39.1875-19.695313-33.265625-43.988281c5.921875-24.289063 30.628906-43.984375 55.1875-43.984375 24.554688 0 39.449219 19.695312 33.261719 43.984375zm0 0" fill="#4b5055"/><path d="m379.929688 372.332031c-7.8125 0-12.601563-6.332031-10.675782-14.117187 1.925782-7.78125 9.871094-14.117188 17.710938-14.117188s12.628906 6.335938 10.675781 14.117188c-1.953125 7.785156-9.898437 14.117187-17.710937 14.117187zm0 0" fill="#5a5f64"/><path d="m105.046875 178.703125h-64.882813c-4.265624 0-7.722656 3.460937-7.722656 7.726563 0 4.265624 3.457032 7.722656 7.722656 7.722656h64.882813c4.265625 0 7.726563-3.457032 7.726563-7.722656 0-4.265626-3.460938-7.726563-7.726563-7.726563zm0 0" fill="#ebebf0"/><path d="m27.992188 216.457031h-20.269532c-4.265625 0-7.722656 3.457031-7.722656 7.722657 0 4.265624 3.457031 7.722656 7.722656 7.722656h20.269532c4.265624 0 7.722656-3.457032 7.722656-7.722656 0-4.265626-3.457032-7.722657-7.722656-7.722657zm0 0" fill="#d2d2d7"/><path d="m89.785156 216.457031h-30.894531c-4.269531 0-7.726563 3.457031-7.726563 7.722657 0 4.265624 3.457032 7.722656 7.726563 7.722656h30.894531c4.265625 0 7.726563-3.457032 7.726563-7.722656 0-4.265626-3.460938-7.722657-7.726563-7.722657zm0 0" fill="#d2d2d7"/><path d="m76.914062 253.871094h-33.308593c-4.265625 0-7.722657 3.460937-7.722657 7.726562s3.457032 7.722656 7.722657 7.722656h33.308593c4.265626 0 7.722657-3.457031 7.722657-7.722656s-3.457031-7.726562-7.722657-7.726562zm0 0" fill="#ebebf0"/><g fill="#d2d2d7"><path d="m7.722656 156.257812h82.394532c4.265624 0 7.726562-3.457031 7.726562-7.722656s-3.460938-7.726562-7.726562-7.726562h-82.394532c-4.265625 0-7.722656 3.460937-7.722656 7.726562s3.457031 7.722656 7.722656 7.722656zm0 0"/><path d="m134.667969 140.808594h-13.652344c-4.265625 0-7.722656 3.460937-7.722656 7.726562s3.457031 7.722656 7.722656 7.722656h13.652344c4.265625 0 7.722656-3.457031 7.722656-7.722656s-3.457031-7.726562-7.722656-7.726562zm0 0"/></g></svg>